<?xml version="1.0" encoding="utf-8"?>
<!-- Generator: Adobe Illustrator 27.0.0, SVG Export Plug-In . SVG Version: 6.00 Build 0)  -->
<svg version="1.1" id="图层_1" xmlns="http://www.w3.org/2000/svg" xmlns:xlink="http://www.w3.org/1999/xlink" x="0px" y="0px"
	 viewBox="0 0 285.96 326.09" style="enable-background:new 0 0 285.96 326.09;" xml:space="preserve">
<style type="text/css">
	.st0{fill:#4822d2;}
	.st1{fill:#C2BBFD;}
	.st2{fill:url(#SVGID_1_);}
</style>
<g>
	<g>
		<path class="st0" d="M218.97,263.91c2.74,0,5.43-0.03,8.13,0.01c4.69,0.05,9.41-0.16,14.06,0.28c10.22,0.97,17.29,7.02,18.4,17.71
			c0.52,4.94,0.25,9.85-1.87,14.44c-2.64,5.7-7.06,9.43-13.18,10.84c-2.77,0.64-5.66,0.93-8.5,1c-5.62,0.15-11.25,0.04-17.04,0.04
			C218.97,293.47,218.97,278.81,218.97,263.91z M228.58,300.54c4.48,0.12,8.73,0.33,12.85-0.97c3.01-0.95,5.39-2.78,6.74-5.71
			c2.21-4.79,2.32-9.71,0.55-14.64c-1.53-4.26-4.74-6.58-9.13-7.11c-2.94-0.36-5.95-0.23-8.91-0.46c-1.63-0.13-2.17,0.27-2.15,2.03
			c0.11,7.23,0.04,14.45,0.04,21.68C228.58,297.01,228.58,298.66,228.58,300.54z"/>
		<path class="st0" d="M32.26,308.22c2.38-5.77,4.67-11.37,7-16.96c3.62-8.7,7.29-17.39,10.88-26.1c0.39-0.95,0.79-1.35,1.88-1.32
			c2.87,0.09,5.74,0.06,8.61,0c0.96-0.02,1.42,0.25,1.8,1.2c5.23,13.11,10.51,26.2,15.79,39.29c0.49,1.22,1.08,2.4,1.75,3.89
			c-3.5,0-6.77,0.03-10.04-0.05c-0.33-0.01-0.75-0.68-0.93-1.12c-0.93-2.36-1.86-4.72-2.67-7.12c-0.29-0.86-0.73-1.08-1.56-1.08
			c-5.69,0.03-11.38,0.05-17.06,0c-1.15-0.01-1.67,0.45-2.03,1.46c-0.82,2.28-1.68,4.55-2.64,6.77c-0.21,0.48-0.86,1.07-1.33,1.08
			C38.63,308.27,35.54,308.22,32.26,308.22z M56.17,273.19c-2.54,6.45-4.9,12.41-7.31,18.53c4.96,0,9.57,0,14.39,0
			C60.88,285.53,58.62,279.6,56.17,273.19z"/>
		<path class="st0" d="M188.06,295.73c0.86,5.11,5.39,6.75,10.07,5.79c3.4-0.69,5.32-2.83,5.41-5.76c0.12-4.06-2.31-6.57-6.8-6.88
			c-1.85-0.13-3.72-0.02-5.66-0.02c0-2.33,0-4.29,0-6.27c2.17-0.19,4.31-0.26,6.41-0.6c2.41-0.38,4.41-2.3,4.71-4.32
			c0.38-2.52,0.25-4.89-2.23-6.42c-3.24-2-9.87-0.47-10.56,3.95c-0.04,0.26-0.19,0.5-0.29,0.75c-3.06,0-6.08,0-9.21,0
			c0.16-3.29,1.47-5.91,3.63-8.18c5.61-5.91,18.13-5.69,23.34-2.24c6.34,4.21,6.74,15.08-0.93,18.59c-0.44,0.2-0.86,0.46-1.65,0.9
			c0.79,0.29,1.26,0.46,1.73,0.63c4.68,1.66,7.21,5.9,6.92,10.84c-0.41,6.98-5.47,10.72-11.3,12.05c-4.51,1.03-8.98,0.76-13.38-0.71
			c-5.2-1.73-9.04-6.41-9.28-11.36c-0.01-0.21,0-0.43,0-0.75C182.02,295.73,184.98,295.73,188.06,295.73z"/>
		<path class="st0" d="M174.76,308.13c-2.84,0-5.63,0-8.56,0c-0.18-1.25-0.35-2.43-0.5-3.47c-1.74,1.11-3.4,2.48-5.3,3.31
			c-5.21,2.29-11.36,1.19-14.76-2.4c-3.77-3.98-2.68-10.93,2.17-13.49c3.72-1.97,7.82-2.56,11.94-3.04
			c1.48-0.17,2.94-0.45,4.42-0.63c1.02-0.13,1.22-0.77,1.2-1.64c-0.05-2.95-1.89-4.71-5-4.71c-3-0.01-5.74,0.51-7.18,3.63
			c-0.1,0.22-0.51,0.41-0.77,0.42c-2.47,0.03-4.94,0.02-7.49,0.02c0.53-4.98,3.42-7.74,7.59-9.18c4.98-1.71,10.08-1.68,15.13-0.17
			c4.04,1.21,6.6,4.62,6.63,8.88c0.05,5.57-0.01,11.15,0.05,16.72C174.36,304.24,174.6,306.1,174.76,308.13z M165.44,293.02
			c-2.35,0.49-4.61,0.9-6.84,1.45c-1.32,0.33-2.65,0.74-3.85,1.35c-1.62,0.82-2.2,2.29-1.89,4.01c0.32,1.77,1.52,2.6,3.17,2.89
			C161.95,303.76,166.12,299.59,165.44,293.02z"/>
		<path class="st0" d="M82.35,276.65c3.08,0,6.05,0,9.29,0c0,0.53,0,1.17,0,1.8c-0.03,5.46-0.07,10.93-0.08,16.39
			c0,0.71,0.08,1.44,0.27,2.12c0.95,3.37,2.62,4.67,5.89,4.64c3.16-0.03,5.8-1.91,6.37-4.97c0.45-2.42,0.53-4.93,0.59-7.4
			c0.09-4.13,0.02-8.27,0.02-12.56c3.03,0,6.03,0,9.13,0c0,10.42,0,20.83,0,31.4c-2.83,0-5.67,0-8.7,0
			c-0.07-1.32-0.14-2.7-0.22-4.08c-0.24-0.16-0.47-0.32-0.71-0.48c-0.29,0.53-0.47,1.17-0.88,1.59c-5.51,5.53-14.45,5.42-18.64-0.43
			c-1.22-1.71-2.16-4.01-2.23-6.08C82.19,291.38,82.35,284.15,82.35,276.65z"/>
		<path class="st0" d="M140.26,275.96c-4.17-0.34-7.23,1.46-9.58,4.74c-0.35,0.49-0.72,0.96-1.07,1.44
			c-0.12-0.06-0.25-0.13-0.37-0.19c0-1.75,0-3.49,0-5.2c-3.02,0-5.91,0-8.77,0c0,10.58,0,20.97,0,31.34c3.12,0,6.07,0,9.15,0
			c0-0.84,0-1.55,0-2.26c0.01-3.97-0.01-7.95,0.03-11.92c0.05-5.31,2.52-8.8,6.88-9.52c1.38-0.23,2.84-0.07,4.56-0.05l-0.1-8.28
			C140.78,276.01,140.54,275.98,140.26,275.96z"/>
	</g>
	<path class="st0" d="M210.11,136.12h0.01c0-12.7-0.03-25.39,0.03-38.09c0.01-2.65-1.14-4.41-3.39-5.57
		c-10.98-5.65-21.97-11.29-32.97-16.92c-8.39-4.3-16.79-8.57-25.19-12.86c-1.85-0.95-3.71-0.96-5.56-0.04
		c-2.07,1.03-4.12,2.1-6.18,3.15c-17.08,8.72-34.15,17.47-51.25,26.15c-2.91,1.48-4.38,3.52-4.29,6.92
		c0.18,7.06,0.13,14.13,0.12,21.2c-0.02,17.94-0.04,35.89-0.12,53.83c-0.01,3.16,1.18,5.29,4.1,6.7c5.71,2.77,11.32,5.73,16.94,8.66
		c13.44,7.03,26.87,14.08,40.29,21.13c2,1.06,3.95,1.18,5.99,0.1c4.88-2.58,9.77-5.12,14.67-7.67c14.23-7.42,28.45-14.85,42.7-22.23
		c2.9-1.5,4.19-3.65,4.16-7.02C210.03,161.08,210.11,148.6,210.11,136.12z M141.59,198.51c0,0.48-0.05,0.96-0.08,1.65
		c-4.49-2.39-8.7-4.66-12.94-6.89c-11-5.77-21.95-11.61-33.03-17.21c-0.48-0.25-0.97-0.5-1.45-0.74c-1.53-0.77-2.57-1.59-3.2-2.66
		c-0.64-1.05-0.89-2.34-0.87-4.08c0.22-20.86,0.11-41.72,0.11-62.59v-1.96c1.11,0.51,1.99,0.88,2.83,1.31
		c15.81,8.17,31.62,16.35,47.45,24.5c0.93,0.49,1.18,1.1,1.18,2.1c-0.04,17.39-0.05,34.77-0.06,52.16
		C141.53,188.9,141.57,193.7,141.59,198.51z M146.87,122.76c-0.57,0.28-1.55,0.28-2.12-0.02c-0.54-0.28-1.08-0.56-1.62-0.84
		c-14.61-7.52-29.19-15.09-43.78-22.65c-1.41-0.72-2.86-1.36-4.65-2.22c0.76-0.46,1.18-0.76,1.63-0.99
		c14.15-7.22,28.31-14.43,42.46-21.66c1.81-0.92,3.63-1.85,5.38-2.89c1.02-0.61,1.84-0.57,2.89-0.03c8.41,4.37,16.85,8.7,25.3,12.99
		c7.48,3.8,14.99,7.52,22.48,11.28c0.63,0.32,1.24,0.67,2.29,1.24c-3.33,1.72-6.26,3.23-9.19,4.74
		c-8.59,4.39-17.18,8.78-25.76,13.19c-4.43,2.27-8.83,4.58-13.27,6.83C148.23,122.08,147.55,122.42,146.87,122.76z M201.49,106.19
		c-0.01,21.8-0.03,43.6,0,65.41c0,0.36-0.04,0.66-0.14,0.92c-0.17,0.51-0.53,0.86-1.1,1.16c-1.29,0.68-2.58,1.36-3.86,2.05
		c-4.32,2.28-8.63,4.58-12.95,6.85c-10.88,5.74-21.76,11.47-32.64,17.2c-0.14,0.07-0.31,0.11-0.57,0.21
		c-0.08-0.33-0.22-0.62-0.22-0.92c0-22.24,0.03-44.49-0.02-66.74c0-1.53,0.58-2.18,1.86-2.83c13.47-6.85,26.9-13.77,40.34-20.68
		c2.74-1.41,5.46-2.87,8.2-4.29c0.27-0.14,0.61-0.15,1.1-0.26V106.19z"/>
	<g>
		<g>
			<rect x="143.13" y="75.35" class="st1" width="5.78" height="11.06"/>
			<rect x="143.13" y="93.13" class="st1" width="5.78" height="12.09"/>
			<path class="st1" d="M148.91,111.69v10.04c-0.68,0.35-1.36,0.69-2.04,1.03c-0.57,0.28-1.55,0.28-2.12-0.02
				c-0.54-0.28-1.08-0.56-1.62-0.84v-10.21H148.91z"/>
			<path class="st1" d="M103.07,171.71l-7.53,4.35c-0.48-0.25-0.97-0.5-1.45-0.74c-1.53-0.77-2.57-1.59-3.2-2.66l9.55-5.51
				L103.07,171.71z"/>
			<polygon class="st1" points="121.9,161.78 108.86,169.31 106.23,164.76 119.28,157.23 			"/>
			
				<rect x="125.08" y="151.25" transform="matrix(0.8661 -0.4998 0.4998 0.8661 -59.2359 86.5734)" class="st1" width="13.87" height="5.26"/>
			<polygon class="st1" points="168.35,154.99 165.72,159.55 152.67,152.01 155.3,147.46 			"/>
			
				<rect x="175.44" y="155.74" transform="matrix(0.5004 -0.8658 0.8658 0.5004 -52.4013 235.7316)" class="st1" width="5.26" height="15.06"/>
			<path class="st1" d="M201.35,172.52c-0.17,0.51-0.53,0.86-1.1,1.16c-1.29,0.68-2.58,1.36-3.86,2.05l-7.24-4.18l2.63-4.56
				L201.35,172.52z"/>
		</g>
	</g>
	<linearGradient id="SVGID_1_" gradientUnits="userSpaceOnUse" x1="143.1208" y1="24.8037" x2="143.1208" y2="239.7042">
		<stop  offset="0" style="stop-color:#81C2FE"/>
		<stop  offset="1" style="stop-color:#BD8BF9"/>
	</linearGradient>
	

	<path filter="url(#blurEffect2)"  class="st2" d="M143.12,30.39c-59.35,0-107.46,47.55-107.46,106.21c0,58.66,48.11,106.21,107.46,106.21
		c59.35,0,107.46-47.55,107.46-106.21C250.58,77.94,202.47,30.39,143.12,30.39z M143.12,234.39c-54.64,0-98.94-43.78-98.94-97.79
		s44.3-97.79,98.94-97.79c54.64,0,98.93,43.78,98.93,97.79S197.76,234.39,143.12,234.39z"/>

	<path filter="url(#blurEffect)" class="st2" d="M143.12,30.39c-59.35,0-107.46,47.55-107.46,106.21c0,58.66,48.11,106.21,107.46,106.21
		c59.35,0,107.46-47.55,107.46-106.21C250.58,77.94,202.47,30.39,143.12,30.39z M143.12,234.39c-54.64,0-98.94-43.78-98.94-97.79
		s44.3-97.79,98.94-97.79c54.64,0,98.93,43.78,98.93,97.79S197.76,234.39,143.12,234.39z"/>

	<filter id="blurEffect" x="-50%" y="-50%" width="200%" height="200%">
      <feGaussianBlur in="SourceGraphic" stdDeviation="10" />
    </filter>

	  
	<filter id="blurEffect2" x="-50%" y="-50%" width="200%" height="200%">
      <feGaussianBlur in="SourceGraphic" stdDeviation="0.3" />
    </filter>
</g>
</svg>
